<svg width="1758" height="911" viewBox="0 0 1758 911" fill="none" xmlns="http://www.w3.org/2000/svg">
<path d="M446.731 0H58.2692C26.0874 0 0 26.088 0 58.2692V852.457C0 884.639 26.0874 910.727 58.2692 910.727H446.731C478.913 910.727 505 884.639 505 852.457V58.2692C505 26.088 478.913 0 446.731 0Z" fill="black"/>
<path d="M442.417 60.4275H62.5879V850.299H442.417V60.4275Z" fill="white"/>
<path d="M138.116 246.026C154.803 246.026 168.33 232.499 168.33 215.812C168.33 199.125 154.803 185.598 138.116 185.598C121.429 185.598 107.902 199.125 107.902 215.812C107.902 232.499 121.429 246.026 138.116 246.026Z" fill="#CF2428"/>
<path d="M138.118 353.932C154.805 353.932 168.332 340.405 168.332 323.718C168.332 307.031 154.805 293.504 138.118 293.504C121.431 293.504 107.904 307.031 107.904 323.718C107.904 340.405 121.431 353.932 138.118 353.932Z" fill="black"/>
<path d="M138.118 446.731C154.805 446.731 168.332 433.204 168.332 416.517C168.332 399.831 154.805 386.303 138.118 386.303C121.431 386.303 107.904 399.831 107.904 416.517C107.904 433.204 121.431 446.731 138.118 446.731Z" fill="black"/>
<path d="M138.118 539.53C154.805 539.53 168.332 526.003 168.332 509.316C168.332 492.63 154.805 479.103 138.118 479.103C121.431 479.103 107.904 492.63 107.904 509.316C107.904 526.003 121.431 539.53 138.118 539.53Z" fill="black"/>
<path d="M250.345 539.53C267.031 539.53 280.558 526.003 280.558 509.316C280.558 492.63 267.031 479.103 250.345 479.103C233.658 479.103 220.131 492.63 220.131 509.316C220.131 526.003 233.658 539.53 250.345 539.53Z" fill="black"/>
<path d="M250.345 446.731C267.031 446.731 280.558 433.204 280.558 416.517C280.558 399.831 267.031 386.303 250.345 386.303C233.658 386.303 220.131 399.831 220.131 416.517C220.131 433.204 233.658 446.731 250.345 446.731Z" fill="black"/>
<path d="M250.345 353.932C267.031 353.932 280.558 340.405 280.558 323.718C280.558 307.031 267.031 293.504 250.345 293.504C233.658 293.504 220.131 307.031 220.131 323.718C220.131 340.405 233.658 353.932 250.345 353.932Z" fill="black"/>
<path d="M366.878 246.026C383.564 246.026 397.091 232.499 397.091 215.812C397.091 199.125 383.564 185.598 366.878 185.598C350.191 185.598 336.664 199.125 336.664 215.812C336.664 232.499 350.191 246.026 366.878 246.026Z" fill="black"/>
<path d="M394.933 320.481C394.933 305.581 382.857 293.504 367.957 293.504C353.057 293.504 340.98 305.581 340.98 320.481V695.994C340.98 710.893 353.057 722.97 367.957 722.97C382.857 722.97 394.933 710.893 394.933 695.994V320.481Z" fill="black"/>
<path fill-rule="evenodd" clip-rule="evenodd" d="M262.211 833.034C335.512 833.034 394.935 773.611 394.935 700.31C394.935 627.008 335.512 567.585 262.211 567.585C188.909 567.585 129.486 627.008 129.486 700.31C129.486 773.611 188.909 833.034 262.211 833.034ZM262.21 776.923C304.523 776.923 338.824 742.622 338.824 700.31C338.824 657.998 304.523 623.697 262.21 623.697C219.898 623.697 185.597 657.998 185.597 700.31C185.597 742.622 219.898 776.923 262.21 776.923Z" fill="black"/>
<path d="M560.975 726.8C560.975 715.6 563.242 705.8 567.775 697.4C572.308 688.867 578.508 682.267 586.375 677.6C594.375 672.933 603.242 670.6 612.975 670.6C622.575 670.6 630.908 672.667 637.975 676.8C645.042 680.933 650.308 686.133 653.775 692.4V672.4H672.175V782H653.775V761.6C650.175 768 644.775 773.333 637.575 777.6C630.508 781.733 622.242 783.8 612.775 783.8C603.042 783.8 594.242 781.4 586.375 776.6C578.508 771.8 572.308 765.067 567.775 756.4C563.242 747.733 560.975 737.867 560.975 726.8ZM653.775 727C653.775 718.733 652.108 711.533 648.775 705.4C645.442 699.267 640.908 694.6 635.175 691.4C629.575 688.067 623.375 686.4 616.575 686.4C609.775 686.4 603.575 688 597.975 691.2C592.375 694.4 587.908 699.067 584.575 705.2C581.242 711.333 579.575 718.533 579.575 726.8C579.575 735.2 581.242 742.533 584.575 748.8C587.908 754.933 592.375 759.667 597.975 763C603.575 766.2 609.775 767.8 616.575 767.8C623.375 767.8 629.575 766.2 635.175 763C640.908 759.667 645.442 754.933 648.775 748.8C652.108 742.533 653.775 735.267 653.775 727ZM759.131 634V782H740.931V634H759.131ZM837.95 654.6C834.483 654.6 831.55 653.4 829.15 651C826.883 648.6 825.75 645.667 825.75 642.2C825.75 638.733 826.883 635.8 829.15 633.4C831.55 631 834.483 629.8 837.95 629.8C841.417 629.8 844.283 631 846.55 633.4C848.95 635.8 850.15 638.733 850.15 642.2C850.15 645.667 848.95 648.6 846.55 651C844.283 653.4 841.417 654.6 837.95 654.6ZM846.95 805.8C846.95 815.533 844.483 822.667 839.55 827.2C834.617 831.733 827.417 834 817.95 834H807.35V818.6H814.95C820.017 818.6 823.55 817.6 825.55 815.6C827.683 813.6 828.75 810.2 828.75 805.4V672.4H846.95V805.8ZM925.159 654.6C921.693 654.6 918.759 653.4 916.359 651C913.959 648.6 912.759 645.667 912.759 642.2C912.759 638.733 913.959 635.8 916.359 633.4C918.759 631 921.693 629.8 925.159 629.8C928.493 629.8 931.293 631 933.559 633.4C935.959 635.8 937.159 638.733 937.159 642.2C937.159 645.667 935.959 648.6 933.559 651C931.293 653.4 928.493 654.6 925.159 654.6ZM933.959 672.4V782H915.759V672.4H933.959ZM1056.38 670.4C1069.71 670.4 1080.51 674.467 1088.78 682.6C1097.04 690.6 1101.18 702.2 1101.18 717.4V782H1083.18V720C1083.18 709.067 1080.44 700.733 1074.98 695C1069.51 689.133 1062.04 686.2 1052.58 686.2C1042.98 686.2 1035.31 689.2 1029.58 695.2C1023.98 701.2 1021.18 709.933 1021.18 721.4V782H1002.98V672.4H1021.18V688C1024.78 682.4 1029.64 678.067 1035.78 675C1042.04 671.933 1048.91 670.4 1056.38 670.4ZM1162.11 726.8C1162.11 715.6 1164.37 705.8 1168.91 697.4C1173.44 688.867 1179.64 682.267 1187.51 677.6C1195.51 672.933 1204.37 670.6 1214.11 670.6C1223.71 670.6 1232.04 672.667 1239.11 676.8C1246.17 680.933 1251.44 686.133 1254.91 692.4V672.4H1273.31V782H1254.91V761.6C1251.31 768 1245.91 773.333 1238.71 777.6C1231.64 781.733 1223.37 783.8 1213.91 783.8C1204.17 783.8 1195.37 781.4 1187.51 776.6C1179.64 771.8 1173.44 765.067 1168.91 756.4C1164.37 747.733 1162.11 737.867 1162.11 726.8ZM1254.91 727C1254.91 718.733 1253.24 711.533 1249.91 705.4C1246.57 699.267 1242.04 694.6 1236.31 691.4C1230.71 688.067 1224.51 686.4 1217.71 686.4C1210.91 686.4 1204.71 688 1199.11 691.2C1193.51 694.4 1189.04 699.067 1185.71 705.2C1182.37 711.333 1180.71 718.533 1180.71 726.8C1180.71 735.2 1182.37 742.533 1185.71 748.8C1189.04 754.933 1193.51 759.667 1199.11 763C1204.71 766.2 1210.91 767.8 1217.71 767.8C1224.51 767.8 1230.71 766.2 1236.31 763C1242.04 759.667 1246.57 754.933 1249.91 748.8C1253.24 742.533 1254.91 735.267 1254.91 727ZM1347.86 783.2C1344.4 783.2 1341.46 782 1339.06 779.6C1336.66 777.2 1335.46 774.267 1335.46 770.8C1335.46 767.333 1336.66 764.4 1339.06 762C1341.46 759.6 1344.4 758.4 1347.86 758.4C1351.2 758.4 1354 759.6 1356.26 762C1358.66 764.4 1359.86 767.333 1359.86 770.8C1359.86 774.267 1358.66 777.2 1356.26 779.6C1354 782 1351.2 783.2 1347.86 783.2ZM1415.26 727C1415.26 715.667 1417.52 705.8 1422.06 697.4C1426.59 688.867 1432.86 682.267 1440.86 677.6C1448.99 672.933 1458.26 670.6 1468.66 670.6C1482.12 670.6 1493.19 673.867 1501.86 680.4C1510.66 686.933 1516.46 696 1519.26 707.6H1499.66C1497.79 700.933 1494.12 695.667 1488.66 691.8C1483.32 687.933 1476.66 686 1468.66 686C1458.26 686 1449.86 689.6 1443.46 696.8C1437.06 703.867 1433.86 713.933 1433.86 727C1433.86 740.2 1437.06 750.4 1443.46 757.6C1449.86 764.8 1458.26 768.4 1468.66 768.4C1476.66 768.4 1483.32 766.533 1488.66 762.8C1493.99 759.067 1497.66 753.733 1499.66 746.8H1519.26C1516.32 758 1510.46 767 1501.66 773.8C1492.86 780.467 1481.86 783.8 1468.66 783.8C1458.26 783.8 1448.99 781.467 1440.86 776.8C1432.86 772.133 1426.59 765.533 1422.06 757C1417.52 748.467 1415.26 738.467 1415.26 727ZM1574.74 727C1574.74 715.667 1577.01 705.8 1581.54 697.4C1586.07 688.867 1592.34 682.267 1600.34 677.6C1608.47 672.933 1617.74 670.6 1628.14 670.6C1641.61 670.6 1652.67 673.867 1661.34 680.4C1670.14 686.933 1675.94 696 1678.74 707.6H1659.14C1657.27 700.933 1653.61 695.667 1648.14 691.8C1642.81 687.933 1636.14 686 1628.14 686C1617.74 686 1609.34 689.6 1602.94 696.8C1596.54 703.867 1593.34 713.933 1593.34 727C1593.34 740.2 1596.54 750.4 1602.94 757.6C1609.34 764.8 1617.74 768.4 1628.14 768.4C1636.14 768.4 1642.81 766.533 1648.14 762.8C1653.47 759.067 1657.14 753.733 1659.14 746.8H1678.74C1675.81 758 1669.94 767 1661.14 773.8C1652.34 780.467 1641.34 783.8 1628.14 783.8C1617.74 783.8 1608.47 781.467 1600.34 776.8C1592.34 772.133 1586.07 765.533 1581.54 757C1577.01 748.467 1574.74 738.467 1574.74 727Z" fill="black"/>
</svg>
