<svg width="505" height="912" viewBox="0 0 505 912" fill="none" xmlns="http://www.w3.org/2000/svg">
<g clip-path="url(#clip0)">
<path d="M446.731 0.290588H58.2692C26.0874 0.290588 0 26.3786 0 58.5598V852.748C0 884.93 26.0874 911.017 58.2692 911.017H446.731C478.913 911.017 505 884.93 505 852.748V58.5598C505 26.3786 478.913 0.290588 446.731 0.290588Z" fill="black"/>
<path d="M442.417 60.718H62.5879V850.59H442.417V60.718Z" fill="white"/>
<path d="M138.116 246.316C154.803 246.316 168.33 232.789 168.33 216.103C168.33 199.416 154.803 185.889 138.116 185.889C121.429 185.889 107.902 199.416 107.902 216.103C107.902 232.789 121.429 246.316 138.116 246.316Z" fill="#CF2428"/>
<path d="M138.118 354.222C154.805 354.222 168.332 340.695 168.332 324.009C168.332 307.322 154.805 293.795 138.118 293.795C121.431 293.795 107.904 307.322 107.904 324.009C107.904 340.695 121.431 354.222 138.118 354.222Z" fill="black"/>
<path d="M138.118 447.021C154.805 447.021 168.332 433.494 168.332 416.808C168.332 400.121 154.805 386.594 138.118 386.594C121.431 386.594 107.904 400.121 107.904 416.808C107.904 433.494 121.431 447.021 138.118 447.021Z" fill="black"/>
<path d="M138.118 539.82C154.805 539.82 168.332 526.293 168.332 509.607C168.332 492.92 154.805 479.393 138.118 479.393C121.431 479.393 107.904 492.92 107.904 509.607C107.904 526.293 121.431 539.82 138.118 539.82Z" fill="black"/>
<path d="M250.345 539.82C267.031 539.82 280.558 526.293 280.558 509.607C280.558 492.92 267.031 479.393 250.345 479.393C233.658 479.393 220.131 492.92 220.131 509.607C220.131 526.293 233.658 539.82 250.345 539.82Z" fill="black"/>
<path d="M250.345 447.021C267.031 447.021 280.558 433.494 280.558 416.808C280.558 400.121 267.031 386.594 250.345 386.594C233.658 386.594 220.131 400.121 220.131 416.808C220.131 433.494 233.658 447.021 250.345 447.021Z" fill="black"/>
<path d="M250.345 354.222C267.031 354.222 280.558 340.695 280.558 324.009C280.558 307.322 267.031 293.795 250.345 293.795C233.658 293.795 220.131 307.322 220.131 324.009C220.131 340.695 233.658 354.222 250.345 354.222Z" fill="black"/>
<path d="M366.878 246.316C383.564 246.316 397.091 232.789 397.091 216.103C397.091 199.416 383.564 185.889 366.878 185.889C350.191 185.889 336.664 199.416 336.664 216.103C336.664 232.789 350.191 246.316 366.878 246.316Z" fill="black"/>
<path d="M394.933 320.771C394.933 305.872 382.857 293.795 367.957 293.795C353.057 293.795 340.98 305.872 340.98 320.771V696.284C340.98 711.184 353.057 723.261 367.957 723.261C382.857 723.261 394.933 711.184 394.933 696.284V320.771Z" fill="black"/>
<path fill-rule="evenodd" clip-rule="evenodd" d="M262.211 833.325C335.512 833.325 394.935 773.902 394.935 700.6C394.935 627.299 335.512 567.876 262.211 567.876C188.909 567.876 129.486 627.299 129.486 700.6C129.486 773.902 188.909 833.325 262.211 833.325ZM262.21 777.214C304.523 777.214 338.824 742.913 338.824 700.6C338.824 658.288 304.523 623.987 262.21 623.987C219.898 623.987 185.597 658.288 185.597 700.6C185.597 742.913 219.898 777.214 262.21 777.214Z" fill="black"/>
</g>
<defs>
<clipPath id="clip0">
<rect y="0.290588" width="505" height="910.727" fill="white"/>
</clipPath>
</defs>
</svg>
