<svg width="111" height="55" viewBox="0 0 111 55" fill="none" xmlns="http://www.w3.org/2000/svg">
<g clip-path="url(#clip0)">
<path d="M17.6923 10.5625H2.30769C1.03316 10.5625 0 11.5329 0 12.7299V42.2701C0 43.4672 1.03316 44.4375 2.30769 44.4375H17.6923C18.9668 44.4375 20 43.4672 20 42.2701V12.7299C20 11.5329 18.9668 10.5625 17.6923 10.5625Z" fill="black"/>
<path d="M17.5212 12.8102H2.47852V42.1899H17.5212V12.8102Z" fill="white"/>
<path d="M5.47002 19.7136C6.13087 19.7136 6.6666 19.2104 6.6666 18.5898C6.6666 17.9691 6.13087 17.4659 5.47002 17.4659C4.80916 17.4659 4.27344 17.9691 4.27344 18.5898C4.27344 19.2104 4.80916 19.7136 5.47002 19.7136Z" fill="#CF2428"/>
<path d="M5.47002 23.7271C6.13087 23.7271 6.6666 23.224 6.6666 22.6033C6.6666 21.9826 6.13087 21.4795 5.47002 21.4795C4.80916 21.4795 4.27344 21.9826 4.27344 22.6033C4.27344 23.224 4.80916 23.7271 5.47002 23.7271Z" fill="black"/>
<path d="M5.47002 27.1789C6.13087 27.1789 6.6666 26.6758 6.6666 26.0551C6.6666 25.4344 6.13087 24.9313 5.47002 24.9313C4.80916 24.9313 4.27344 25.4344 4.27344 26.0551C4.27344 26.6758 4.80916 27.1789 5.47002 27.1789Z" fill="black"/>
<path d="M5.47002 30.6307C6.13087 30.6307 6.6666 30.1275 6.6666 29.5069C6.6666 28.8862 6.13087 28.3831 5.47002 28.3831C4.80916 28.3831 4.27344 28.8862 4.27344 29.5069C4.27344 30.1275 4.80916 30.6307 5.47002 30.6307Z" fill="black"/>
<path d="M9.91533 30.6307C10.5762 30.6307 11.1119 30.1275 11.1119 29.5069C11.1119 28.8862 10.5762 28.3831 9.91533 28.3831C9.25448 28.3831 8.71875 28.8862 8.71875 29.5069C8.71875 30.1275 9.25448 30.6307 9.91533 30.6307Z" fill="black"/>
<path d="M9.91533 27.1789C10.5762 27.1789 11.1119 26.6758 11.1119 26.0551C11.1119 25.4344 10.5762 24.9313 9.91533 24.9313C9.25448 24.9313 8.71875 25.4344 8.71875 26.0551C8.71875 26.6758 9.25448 27.1789 9.91533 27.1789Z" fill="black"/>
<path d="M9.91533 23.7271C10.5762 23.7271 11.1119 23.224 11.1119 22.6033C11.1119 21.9826 10.5762 21.4795 9.91533 21.4795C9.25448 21.4795 8.71875 21.9826 8.71875 22.6033C8.71875 23.224 9.25448 23.7271 9.91533 23.7271Z" fill="black"/>
<path d="M14.5306 19.7136C15.1914 19.7136 15.7272 19.2104 15.7272 18.5898C15.7272 17.9691 15.1914 17.4659 14.5306 17.4659C13.8697 17.4659 13.334 17.9691 13.334 18.5898C13.334 19.2104 13.8697 19.7136 14.5306 19.7136Z" fill="black"/>
<path d="M15.6407 22.4829C15.6407 21.9287 15.1624 21.4795 14.5723 21.4795C13.9822 21.4795 13.5039 21.9287 13.5039 22.4829V36.4503C13.5039 37.0045 13.9822 37.4537 14.5723 37.4537C15.1624 37.4537 15.6407 37.0045 15.6407 36.4503V22.4829Z" fill="black"/>
<path fill-rule="evenodd" clip-rule="evenodd" d="M10.3834 41.5477C13.2864 41.5477 15.6398 39.3375 15.6398 36.611C15.6398 33.8845 13.2864 31.6742 10.3834 31.6742C7.48033 31.6742 5.12695 33.8845 5.12695 36.611C5.12695 39.3375 7.48033 41.5477 10.3834 41.5477ZM10.3823 39.4606C12.058 39.4606 13.4165 38.1848 13.4165 36.6109C13.4165 35.0371 12.058 33.7613 10.3823 33.7613C8.70656 33.7613 7.34811 35.0371 7.34811 36.6109C7.34811 38.1848 8.70656 39.4606 10.3823 39.4606Z" fill="black"/>
</g>
<path d="M23.5731 37.86C23.5731 37.02 23.7431 36.285 24.0831 35.655C24.4231 35.015 24.8881 34.52 25.4781 34.17C26.0781 33.82 26.7431 33.645 27.4731 33.645C28.1931 33.645 28.8181 33.8 29.3481 34.11C29.8781 34.42 30.2731 34.81 30.5331 35.28V33.78H31.9131V42H30.5331V40.47C30.2631 40.95 29.8581 41.35 29.3181 41.67C28.7881 41.98 28.1681 42.135 27.4581 42.135C26.7281 42.135 26.0681 41.955 25.4781 41.595C24.8881 41.235 24.4231 40.73 24.0831 40.08C23.7431 39.43 23.5731 38.69 23.5731 37.86ZM30.5331 37.875C30.5331 37.255 30.4081 36.715 30.1581 36.255C29.9081 35.795 29.5681 35.445 29.1381 35.205C28.7181 34.955 28.2531 34.83 27.7431 34.83C27.2331 34.83 26.7681 34.95 26.3481 35.19C25.9281 35.43 25.5931 35.78 25.3431 36.24C25.0931 36.7 24.9681 37.24 24.9681 37.86C24.9681 38.49 25.0931 39.04 25.3431 39.51C25.5931 39.97 25.9281 40.325 26.3481 40.575C26.7681 40.815 27.2331 40.935 27.7431 40.935C28.2531 40.935 28.7181 40.815 29.1381 40.575C29.5681 40.325 29.9081 39.97 30.1581 39.51C30.4081 39.04 30.5331 38.495 30.5331 37.875ZM38.4348 30.9V42H37.0698V30.9H38.4348ZM44.3462 32.445C44.0862 32.445 43.8662 32.355 43.6862 32.175C43.5162 31.995 43.4312 31.775 43.4312 31.515C43.4312 31.255 43.5162 31.035 43.6862 30.855C43.8662 30.675 44.0862 30.585 44.3462 30.585C44.6062 30.585 44.8212 30.675 44.9912 30.855C45.1712 31.035 45.2612 31.255 45.2612 31.515C45.2612 31.775 45.1712 31.995 44.9912 32.175C44.8212 32.355 44.6062 32.445 44.3462 32.445ZM45.0212 43.785C45.0212 44.515 44.8362 45.05 44.4662 45.39C44.0962 45.73 43.5562 45.9 42.8462 45.9H42.0512V44.745H42.6212C43.0012 44.745 43.2662 44.67 43.4162 44.52C43.5762 44.37 43.6562 44.115 43.6562 43.755V33.78H45.0212V43.785ZM50.887 32.445C50.627 32.445 50.407 32.355 50.227 32.175C50.047 31.995 49.957 31.775 49.957 31.515C49.957 31.255 50.047 31.035 50.227 30.855C50.407 30.675 50.627 30.585 50.887 30.585C51.137 30.585 51.347 30.675 51.517 30.855C51.697 31.035 51.787 31.255 51.787 31.515C51.787 31.775 51.697 31.995 51.517 32.175C51.347 32.355 51.137 32.445 50.887 32.445ZM51.547 33.78V42H50.182V33.78H51.547ZM60.7284 33.63C61.7284 33.63 62.5384 33.935 63.1584 34.545C63.7784 35.145 64.0884 36.015 64.0884 37.155V42H62.7384V37.35C62.7384 36.53 62.5334 35.905 62.1234 35.475C61.7134 35.035 61.1534 34.815 60.4434 34.815C59.7234 34.815 59.1484 35.04 58.7184 35.49C58.2984 35.94 58.0884 36.595 58.0884 37.455V42H56.7234V33.78H58.0884V34.95C58.3584 34.53 58.7234 34.205 59.1834 33.975C59.6534 33.745 60.1684 33.63 60.7284 33.63ZM68.6581 37.86C68.6581 37.02 68.8281 36.285 69.1681 35.655C69.5081 35.015 69.9731 34.52 70.5631 34.17C71.1631 33.82 71.8281 33.645 72.5581 33.645C73.2781 33.645 73.9031 33.8 74.4331 34.11C74.9631 34.42 75.3581 34.81 75.6181 35.28V33.78H76.9981V42H75.6181V40.47C75.3481 40.95 74.9431 41.35 74.4031 41.67C73.8731 41.98 73.2531 42.135 72.5431 42.135C71.8131 42.135 71.1531 41.955 70.5631 41.595C69.9731 41.235 69.5081 40.73 69.1681 40.08C68.8281 39.43 68.6581 38.69 68.6581 37.86ZM75.6181 37.875C75.6181 37.255 75.4931 36.715 75.2431 36.255C74.9931 35.795 74.6531 35.445 74.2231 35.205C73.8031 34.955 73.3381 34.83 72.8281 34.83C72.3181 34.83 71.8531 34.95 71.4331 35.19C71.0131 35.43 70.6781 35.78 70.4281 36.24C70.1781 36.7 70.0531 37.24 70.0531 37.86C70.0531 38.49 70.1781 39.04 70.4281 39.51C70.6781 39.97 71.0131 40.325 71.4331 40.575C71.8531 40.815 72.3181 40.935 72.8281 40.935C73.3381 40.935 73.8031 40.815 74.2231 40.575C74.6531 40.325 74.9931 39.97 75.2431 39.51C75.4931 39.04 75.6181 38.495 75.6181 37.875ZM82.5898 42.09C82.3298 42.09 82.1098 42 81.9298 41.82C81.7498 41.64 81.6598 41.42 81.6598 41.16C81.6598 40.9 81.7498 40.68 81.9298 40.5C82.1098 40.32 82.3298 40.23 82.5898 40.23C82.8398 40.23 83.0498 40.32 83.2198 40.5C83.3998 40.68 83.4898 40.9 83.4898 41.16C83.4898 41.42 83.3998 41.64 83.2198 41.82C83.0498 42 82.8398 42.09 82.5898 42.09ZM87.6442 37.875C87.6442 37.025 87.8142 36.285 88.1542 35.655C88.4942 35.015 88.9642 34.52 89.5642 34.17C90.1742 33.82 90.8692 33.645 91.6492 33.645C92.6592 33.645 93.4892 33.89 94.1392 34.38C94.7992 34.87 95.2342 35.55 95.4442 36.42H93.9742C93.8342 35.92 93.5592 35.525 93.1492 35.235C92.7492 34.945 92.2492 34.8 91.6492 34.8C90.8692 34.8 90.2392 35.07 89.7592 35.61C89.2792 36.14 89.0392 36.895 89.0392 37.875C89.0392 38.865 89.2792 39.63 89.7592 40.17C90.2392 40.71 90.8692 40.98 91.6492 40.98C92.2492 40.98 92.7492 40.84 93.1492 40.56C93.5492 40.28 93.8242 39.88 93.9742 39.36H95.4442C95.2242 40.2 94.7842 40.875 94.1242 41.385C93.4642 41.885 92.6392 42.135 91.6492 42.135C90.8692 42.135 90.1742 41.96 89.5642 41.61C88.9642 41.26 88.4942 40.765 88.1542 40.125C87.8142 39.485 87.6442 38.735 87.6442 37.875ZM99.6055 37.875C99.6055 37.025 99.7755 36.285 100.116 35.655C100.456 35.015 100.926 34.52 101.526 34.17C102.136 33.82 102.831 33.645 103.611 33.645C104.621 33.645 105.451 33.89 106.101 34.38C106.761 34.87 107.196 35.55 107.406 36.42H105.936C105.796 35.92 105.521 35.525 105.111 35.235C104.711 34.945 104.211 34.8 103.611 34.8C102.831 34.8 102.201 35.07 101.721 35.61C101.241 36.14 101.001 36.895 101.001 37.875C101.001 38.865 101.241 39.63 101.721 40.17C102.201 40.71 102.831 40.98 103.611 40.98C104.211 40.98 104.711 40.84 105.111 40.56C105.511 40.28 105.786 39.88 105.936 39.36H107.406C107.186 40.2 106.746 40.875 106.086 41.385C105.426 41.885 104.601 42.135 103.611 42.135C102.831 42.135 102.136 41.96 101.526 41.61C100.926 41.26 100.456 40.765 100.116 40.125C99.7755 39.485 99.6055 38.735 99.6055 37.875Z" fill="black"/>
<defs>
<clipPath id="clip0">
<rect y="10.5625" width="20" height="33.875" fill="white"/>
</clipPath>
</defs>
</svg>
