<svg width="414" height="125" viewBox="0 0 414 125" fill="none" xmlns="http://www.w3.org/2000/svg">
<g clip-path="url(#clip0)">
<path d="M55.9194 0H7.29384C3.26548 0 0 3.26556 0 7.29384V106.706C0 110.735 3.26548 114 7.29384 114H55.9194C59.9478 114 63.2133 110.735 63.2133 106.706V7.29384C63.2133 3.26556 59.9478 0 55.9194 0Z" fill="white"/>
<path d="M55.379 7.564H7.83398V106.436H55.379V7.564Z" fill="#424040"/>
<path d="M17.2893 30.7962C19.3781 30.7962 21.0713 29.103 21.0713 27.0142C21.0713 24.9255 19.3781 23.2322 17.2893 23.2322C15.2006 23.2322 13.5073 24.9255 13.5073 27.0142C13.5073 29.103 15.2006 30.7962 17.2893 30.7962Z" fill="#CF2428"/>
<path d="M17.2893 44.3033C19.3781 44.3033 21.0713 42.6101 21.0713 40.5213C21.0713 38.4326 19.3781 36.7393 17.2893 36.7393C15.2006 36.7393 13.5073 38.4326 13.5073 40.5213C13.5073 42.6101 15.2006 44.3033 17.2893 44.3033Z" fill="white"/>
<path d="M17.2893 55.9194C19.3781 55.9194 21.0713 54.2262 21.0713 52.1374C21.0713 50.0487 19.3781 48.3555 17.2893 48.3555C15.2006 48.3555 13.5073 50.0487 13.5073 52.1374C13.5073 54.2262 15.2006 55.9194 17.2893 55.9194Z" fill="white"/>
<path d="M17.2893 67.5355C19.3781 67.5355 21.0713 65.8423 21.0713 63.7535C21.0713 61.6648 19.3781 59.9716 17.2893 59.9716C15.2006 59.9716 13.5073 61.6648 13.5073 63.7535C13.5073 65.8423 15.2006 67.5355 17.2893 67.5355Z" fill="white"/>
<path d="M31.3367 67.5355C33.4254 67.5355 35.1187 65.8423 35.1187 63.7535C35.1187 61.6648 33.4254 59.9716 31.3367 59.9716C29.2479 59.9716 27.5547 61.6648 27.5547 63.7535C27.5547 65.8423 29.2479 67.5355 31.3367 67.5355Z" fill="white"/>
<path d="M31.3367 55.9194C33.4254 55.9194 35.1187 54.2262 35.1187 52.1374C35.1187 50.0487 33.4254 48.3555 31.3367 48.3555C29.2479 48.3555 27.5547 50.0487 27.5547 52.1374C27.5547 54.2262 29.2479 55.9194 31.3367 55.9194Z" fill="white"/>
<path d="M31.3367 44.3033C33.4254 44.3033 35.1187 42.6101 35.1187 40.5213C35.1187 38.4326 33.4254 36.7393 31.3367 36.7393C29.2479 36.7393 27.5547 38.4326 27.5547 40.5213C27.5547 42.6101 29.2479 44.3033 31.3367 44.3033Z" fill="white"/>
<path d="M45.9241 30.7962C48.0128 30.7962 49.7061 29.103 49.7061 27.0142C49.7061 24.9255 48.0128 23.2322 45.9241 23.2322C43.8353 23.2322 42.1421 24.9255 42.1421 27.0142C42.1421 29.103 43.8353 30.7962 45.9241 30.7962Z" fill="white"/>
<path d="M49.4357 40.1161C49.4357 38.2511 47.924 36.7393 46.0589 36.7393C44.1938 36.7393 42.6821 38.2511 42.6821 40.1161V87.1209C42.6821 88.9859 44.1938 90.4976 46.0589 90.4976C47.924 90.4976 49.4357 88.9859 49.4357 87.1209V40.1161Z" fill="white"/>
<path fill-rule="evenodd" clip-rule="evenodd" d="M32.8222 104.275C41.9978 104.275 49.436 96.8367 49.436 87.6611C49.436 78.4856 41.9978 71.0474 32.8222 71.0474C23.6467 71.0474 16.2085 78.4856 16.2085 87.6611C16.2085 96.8367 23.6467 104.275 32.8222 104.275ZM32.8223 97.2512C38.1188 97.2512 42.4124 92.9576 42.4124 87.6611C42.4124 82.3647 38.1188 78.0711 32.8223 78.0711C27.5259 78.0711 23.2323 82.3647 23.2323 87.6611C23.2323 92.9576 27.5259 97.2512 32.8223 97.2512Z" fill="white"/>
</g>
<path d="M103.071 90.8V90.96V102.24H100.111V98.68C97.6311 101.507 94.5911 102.867 90.9911 102.76C87.8444 102.653 85.1644 101.44 82.9511 99.12C80.7378 96.8 79.6311 94.04 79.6311 90.84C79.6311 87.5067 80.8178 84.6533 83.1911 82.28C85.5644 79.88 88.4044 78.7467 91.7111 78.88C94.9111 78.9867 97.6311 80.2133 99.8711 82.56C102.111 84.88 103.178 87.6267 103.071 90.8ZM100.031 90.56C99.9778 88.16 99.1244 86.1067 97.4711 84.4C95.8178 82.6933 93.8311 81.84 91.5111 81.84C89.0844 81.84 87.0178 82.6933 85.3111 84.4C83.6044 86.1067 82.7378 88.1733 82.7111 90.6C82.6578 93 83.4444 95.1067 85.0711 96.92C86.7244 98.7067 88.7111 99.6533 91.0311 99.76C93.5378 99.8667 95.6711 99 97.4311 97.16C99.2178 95.2933 100.084 93.0933 100.031 90.56ZM123.113 102.24H120.073V71.4H123.113V102.24ZM143.422 76.8H140.262V71.4H143.422V76.8ZM143.342 102.8C143.342 104.907 142.968 106.387 142.222 107.24C141.342 108.28 140.115 108.947 138.542 109.24L137.702 109.4V106.36C138.662 106.28 139.368 105.867 139.822 105.12C140.115 104.64 140.262 103.68 140.262 102.24V79.4H143.342V102.8ZM163.524 76.72H160.524V71.4H163.524V76.72ZM163.524 102.24H160.524V79.44H163.524V102.24ZM200.811 102.24H197.731V88.92C197.731 87 197.025 85.3467 195.611 83.96C194.225 82.5733 192.598 81.88 190.731 81.88C188.838 81.88 187.185 82.5733 185.771 83.96C184.385 85.3467 183.691 87 183.691 88.92V102.24H180.611V89.24C180.611 86.28 181.571 83.8267 183.491 81.88C185.411 79.9067 187.825 78.92 190.731 78.92C193.611 78.92 196.011 79.9067 197.931 81.88C199.851 83.8267 200.811 86.28 200.811 89.24V102.24ZM241.212 90.8V90.96V102.24H238.252V98.68C235.772 101.507 232.732 102.867 229.132 102.76C225.985 102.653 223.305 101.44 221.092 99.12C218.878 96.8 217.772 94.04 217.772 90.84C217.772 87.5067 218.958 84.6533 221.332 82.28C223.705 79.88 226.545 78.7467 229.852 78.88C233.052 78.9867 235.772 80.2133 238.012 82.56C240.252 84.88 241.318 87.6267 241.212 90.8ZM238.172 90.56C238.118 88.16 237.265 86.1067 235.612 84.4C233.958 82.6933 231.972 81.84 229.652 81.84C227.225 81.84 225.158 82.6933 223.452 84.4C221.745 86.1067 220.878 88.1733 220.852 90.6C220.798 93 221.585 95.1067 223.212 96.92C224.865 98.7067 226.852 99.6533 229.172 99.76C231.678 99.8667 233.812 99 235.572 97.16C237.358 95.2933 238.225 93.0933 238.172 90.56ZM261.253 102.64H258.213V97.32H261.253V102.64ZM299.872 95.52L299.552 96.2C297.152 100.627 293.445 102.813 288.432 102.76C285.125 102.733 282.272 101.573 279.872 99.28C277.472 96.9867 276.259 94.2 276.232 90.92C276.179 87.6133 277.352 84.7867 279.752 82.44C282.179 80.0667 285.072 78.8533 288.432 78.8C290.832 78.7733 293.072 79.4 295.152 80.68C297.125 81.9067 298.539 83.4533 299.392 85.32L299.832 86.32H296.392C294.685 83.3867 292.072 81.88 288.552 81.8C286.205 81.7467 284.099 82.6 282.232 84.36C280.285 86.1733 279.312 88.32 279.312 90.8C279.312 93.28 280.219 95.4133 282.032 97.2C283.845 98.96 285.992 99.8267 288.472 99.8C292.019 99.7467 294.672 98.32 296.432 95.52H299.872ZM337.735 95.52L337.415 96.2C335.015 100.627 331.308 102.813 326.295 102.76C322.988 102.733 320.135 101.573 317.735 99.28C315.335 96.9867 314.121 94.2 314.095 90.92C314.041 87.6133 315.215 84.7867 317.615 82.44C320.041 80.0667 322.935 78.8533 326.295 78.8C328.695 78.7733 330.935 79.4 333.015 80.68C334.988 81.9067 336.401 83.4533 337.255 85.32L337.695 86.32H334.255C332.548 83.3867 329.935 81.88 326.415 81.8C324.068 81.7467 321.961 82.6 320.095 84.36C318.148 86.1733 317.175 88.32 317.175 90.8C317.175 93.28 318.081 95.4133 319.895 97.2C321.708 98.96 323.855 99.8267 326.335 99.8C329.881 99.7467 332.535 98.32 334.295 95.52H337.735Z" fill="white"/>
<defs>
<clipPath id="clip0">
<rect width="63.2133" height="114" fill="white"/>
</clipPath>
</defs>
</svg>
