<svg width="206" height="465" viewBox="0 0 206 465" fill="none" xmlns="http://www.w3.org/2000/svg">
<path d="M21.5 43C33.3741 43 43 33.3741 43 21.5C43 9.62586 33.3741 0 21.5 0C9.62586 0 0 9.62586 0 21.5C0 33.3741 9.62586 43 21.5 43Z" fill="#CF2428"/>
<path d="M206 96.3467C206 85.6611 197.27 77 186.5 77C175.73 77 167 85.6611 167 96.3467V365.653C167 376.339 175.73 385 186.5 385C197.27 385 206 376.339 206 365.653V96.3467Z" fill="black"/>
<path fill-rule="evenodd" clip-rule="evenodd" d="M110.745 464.489C163.353 464.489 206 421.841 206 369.233C206 316.625 163.353 273.978 110.745 273.978C58.1374 273.978 15.4902 316.625 15.4902 369.233C15.4902 421.841 58.1374 464.489 110.745 464.489ZM110.745 424.218C141.112 424.218 165.73 399.601 165.73 369.233C165.73 338.866 141.112 314.249 110.745 314.249C80.3777 314.249 55.7603 338.866 55.7603 369.233C55.7603 399.601 80.3777 424.218 110.745 424.218Z" fill="black"/>
</svg>
